<svg width="64" height="79" viewBox="0 0 64 79" fill="none" xmlns="http://www.w3.org/2000/svg">
    <path d="M62.3235 68.7065C61.4224 68.7065 60.5213 68.7065 59.6202 68.7065C59.4944 68.7065 59.3687 68.7065 59.201 68.6855V68.2243C59.201 62.9832 59.201 57.7421 59.201 52.48C59.201 51.5786 58.9705 51.3479 58.0485 51.3479C57.0845 51.3479 56.1205 51.3479 55.1565 51.3479C55.0098 51.3479 54.8841 51.3479 54.7374 51.327V38.7274C54.7374 38.7274 54.8631 38.7693 54.905 38.7903C55.7852 39.2096 56.833 38.958 57.294 37.7211C57.9227 36.0649 58.6352 34.4297 59.3268 32.7944C59.4106 32.5848 59.4944 32.3542 59.5154 32.1236C59.5363 31.8091 59.5154 31.5156 59.3897 31.285C59.1172 30.7399 58.5095 30.4884 58.3418 30.4255C57.3988 30.0481 44.1755 24.5554 25.8389 16.9663C25.2312 8.72731 24.0157 0.278652 21.5429 0.00611468C20.537 -0.0987073 19.6359 1.15916 18.6929 2.62667C17.4355 4.59732 7.71185 20.3626 10.038 40.4045C10.1847 41.6414 10.4152 43.3605 11.2534 43.5701C13.0347 44.0104 15.6542 37.197 22.4231 26.2116C22.5697 25.96 22.7374 25.7085 22.8841 25.4569C24.0157 25.9181 25.1683 26.4003 26.2999 26.8615C26.5305 26.9454 26.5933 27.0712 26.5514 27.3018C26.4676 27.784 26.4047 28.2661 26.3209 28.7483C25.9646 31.2221 25.6084 33.7169 25.2521 36.1907C24.8749 38.8322 24.4768 41.4947 24.0995 44.1362C23.7223 46.7987 23.3451 49.4611 22.947 52.1236C22.5697 54.7651 22.1716 57.4276 21.7944 60.0691C21.3962 62.7735 20.998 65.478 20.6418 68.1824C20.5789 68.6436 20.4113 68.6855 20.0131 68.6855C13.9358 68.6855 7.85855 68.6855 1.78127 68.6855C0.628684 68.6855 0 69.3144 0 70.4675C0 72.7107 0 74.9539 0 77.1971C0 78.3711 0.628684 79 1.80223 79C7.29273 79 12.7832 79 18.2737 79C32.9221 79 47.5704 79 62.2187 79C63.3504 79 64 78.3711 64 77.239C64 74.9539 64 72.6687 64 70.3836C64 69.3144 63.3504 68.6645 62.2606 68.6645L62.3235 68.7065ZM35.9607 40.6351C34.0747 39.2305 32.2724 37.8888 30.4073 36.5051C31.8743 35.2473 33.2993 34.0523 34.8081 32.7735C35.1853 35.394 35.5625 37.9727 35.9607 40.6351ZM36.7361 46.023C37.3019 49.9433 37.8468 53.8008 38.4335 57.7631C35.332 55.3941 32.3353 53.088 29.2967 50.74C31.7904 49.1676 34.2214 47.6163 36.7361 46.002V46.023ZM29.9044 28.3919C30.9732 28.8322 31.979 29.2515 33.0688 29.6917C31.7904 30.7609 30.575 31.7882 29.3595 32.8154C29.3386 32.8154 29.2967 32.7944 29.2757 32.7735C29.4853 31.3269 29.6948 29.8594 29.9044 28.371V28.3919ZM28.3327 39.2515C30.2816 40.698 32.1676 42.1236 34.0956 43.5701C31.7485 45.0586 29.4434 46.5261 27.0544 48.0356C27.4735 45.0796 27.8926 42.2075 28.3117 39.2515H28.3327ZM26.3628 52.8574C29.5481 55.2892 32.6706 57.7002 35.835 60.132C31.9162 62.9622 28.0602 65.7715 24.0786 68.6436C24.854 63.3186 25.5874 58.1194 26.3628 52.8364V52.8574ZM29.9882 68.6645C33.0478 66.4423 36.0236 64.283 39.0622 62.1027C39.3766 64.3459 39.6909 66.4842 40.0052 68.6645H29.9882ZM51.5521 50.8867C51.5521 51.0125 51.5521 51.1383 51.5521 51.327C51.091 51.327 50.651 51.327 50.2109 51.327C49.5193 51.327 48.8068 51.327 48.1153 51.327C47.3608 51.327 47.0884 51.5995 47.0884 52.3542C47.0884 57.6373 47.0884 62.9203 47.0884 68.2033V68.6855C46.5226 68.6855 45.9987 68.6855 45.4538 68.6855C44.909 68.6855 44.3432 68.6855 43.7983 68.6855C43.5887 68.6855 43.484 68.6017 43.463 68.392C43.0858 65.7924 42.7295 63.1719 42.3523 60.5723C41.9751 57.9098 41.5769 55.2473 41.1997 52.5848C40.8435 50.132 40.4872 47.6792 40.131 45.2263C39.7957 42.9412 39.4813 40.6561 39.146 38.371C38.8527 36.2745 38.5383 34.1991 38.2449 32.1026C38.2449 32.0188 38.2449 31.9559 38.2449 31.8091C38.9784 32.1026 39.6699 32.3961 40.3825 32.6896C43.9869 34.1781 47.6123 35.6875 51.2168 37.155C51.4892 37.2599 51.594 37.4066 51.594 37.7001C51.594 42.0817 51.594 46.4632 51.573 50.8658L51.5521 50.8867Z" fill="#991F23"/>
</svg>
