<svg width="82" height="79" viewBox="0 0 82 79" fill="none" xmlns="http://www.w3.org/2000/svg">
    <path d="M80.0947 51.9577C78.3979 49.8538 76.1808 48.6875 73.4886 48.5046V45.0743C73.4886 42.0098 73.4886 38.9226 73.4886 35.8582C73.4886 34.3946 73.3302 32.7251 72.1538 31.5131C71.3619 30.6898 71.0678 29.8666 71.2036 28.7231C71.2036 28.5859 71.2036 28.4258 71.2036 28.22C71.1131 26.9394 70.457 26.2533 69.2353 26.2076C67.81 26.1618 66.4978 26.1618 65.2535 26.2076C64.326 26.2533 63.24 26.6649 63.2174 28.4487V28.8146C63.2174 29.1576 63.2174 29.5007 63.2174 29.8437C63.2626 30.2553 63.1495 30.5069 62.8102 30.827C61.5432 32.062 60.9324 33.617 60.955 35.6295C60.955 38.6024 60.955 41.5982 60.955 44.5711V48.436H56.0004V44.3653C56.0004 41.3924 56.0004 38.3966 56.0004 35.4237C56.0004 33.6399 55.548 32.2906 54.5751 31.353C53.8964 30.6898 53.6702 29.958 53.7833 28.8375C53.7833 28.746 53.7833 28.6316 53.7833 28.4487C53.7833 26.9851 53.0367 26.2076 51.5888 26.1847C50.3445 26.1618 49.1002 26.1618 47.8559 26.1847C46.589 26.2076 45.865 26.8708 45.7519 28.1743C45.7293 28.5173 45.7066 28.8603 45.7066 29.2034C45.7066 29.5235 45.7066 29.8437 45.6614 30.141C45.6614 30.3239 45.5709 30.484 45.5256 30.5297C44.0777 31.9705 43.399 33.8228 43.4216 36.2241C43.4443 39.0369 43.4443 41.8498 43.4216 44.6398V48.436H30.5487V35.9039C35.3223 35.1721 39.191 30.7356 39.2136 25.8417V24.6525C39.2136 23.1889 39.2362 21.7024 39.2136 20.2388C39.1458 16.5112 37.5395 13.5612 34.4627 11.503C32.8111 10.4053 30.956 9.87929 28.9425 9.87929C27.5624 9.87929 26.1824 9.87929 24.7797 9.87929H23.4675V9.44478C23.4901 8.75872 23.5128 8.09553 23.5806 7.43234C23.6938 6.35751 24.3951 5.53423 25.3905 5.32841C25.843 5.23694 26.3634 5.21407 26.8385 5.21407C34.5531 5.21407 42.2678 5.21407 49.9599 5.21407C50.2766 5.21407 50.616 5.23694 50.9327 5.28268C52.2901 5.41989 53.1951 6.44898 53.1951 7.84397V9.07888C53.1951 10.8398 53.1951 12.6235 53.1951 14.3844C53.1951 14.5902 53.0593 14.9104 52.901 15.0705C51.7472 16.2597 50.5934 17.4488 49.4169 18.6151L47.6297 20.4218C47.0414 21.0164 46.7247 21.7482 46.7247 22.5028C46.7247 23.166 46.9962 23.8063 47.4939 24.3095C48.5346 25.3614 50.1183 25.2699 51.2494 24.1494L52.4033 22.9831C54.0548 21.3365 55.7516 19.6442 57.3805 17.9062C57.9234 17.3345 58.2854 16.4426 58.308 15.7108C58.3985 12.7836 58.3985 9.9479 58.308 7.22652C58.2628 6.12882 57.8782 5.07686 57.5615 4.41366C56.1588 1.50934 53.6249 0 50.0504 0C42.2226 0 34.3722 0 26.5443 0C25.3905 0 24.3272 0.18295 23.4223 0.548849C20.5717 1.66942 18.8749 3.81908 18.5129 6.79201C18.4224 7.61528 18.3772 8.43856 18.3319 9.26183C18.3319 9.44478 18.3319 9.6506 18.3093 9.83355C17.97 9.83355 17.6306 9.83355 17.3139 9.83355C16.7935 9.83355 16.2732 9.83355 15.7302 9.83355C14.5085 9.83355 13.2416 9.83355 11.9747 9.99363C7.65355 10.5425 3.76227 14.9333 3.64915 19.3927C3.6039 21.245 3.58128 23.0974 3.58128 24.9498V25.2928C3.55865 29.089 5.14231 32.1534 8.19652 34.2116C9.12409 34.8291 10.1422 35.2178 11.2055 35.6295C11.5674 35.7667 11.9294 35.9039 12.2914 36.064V48.436H11.6127C10.753 48.436 9.91592 48.436 9.05622 48.436C9.01097 48.436 8.9431 48.436 8.89785 48.436C4.59934 48.436 0.753312 51.7977 0.0972247 56.1656C-0.287378 58.6583 0.481828 61.2424 2.17861 63.2549C3.80751 65.1987 6.11513 66.3422 8.49062 66.3879C9.07884 66.3879 9.66706 66.3879 10.2553 66.3879H10.5494V73.7516C10.2553 73.7516 9.96116 73.7516 9.66706 73.7516C8.12864 73.8202 6.95221 74.9179 6.92959 76.3129C6.92959 77.7308 8.15127 78.9428 9.62181 78.9657C11.9521 79.0114 14.3275 79.0114 16.7483 78.9657C17.4949 78.9657 18.1962 78.6455 18.7165 78.0967C19.1916 77.5936 19.4405 76.9761 19.4179 76.3129C19.3953 74.8951 18.2414 73.8202 16.703 73.7516C16.3863 73.7516 16.0922 73.7516 15.7755 73.7516V66.4794H66.1358V73.7516C65.8191 73.7516 65.525 73.7516 65.2309 73.7516C63.6925 73.8202 62.5839 74.8493 62.5161 76.2901C62.4934 76.9304 62.7423 77.5707 63.2174 78.0738C63.7151 78.5998 64.3938 78.92 65.1178 78.9428C66.2716 78.9657 67.4254 78.9886 68.5792 78.9886C69.8914 78.9886 71.1583 78.9886 72.4026 78.9428C73.8279 78.8971 75.027 77.7079 75.0043 76.3129C75.0043 74.9179 73.8053 73.8202 72.2895 73.7516C71.9954 73.7516 71.7013 73.7516 71.4298 73.7516V66.4336C74.1446 66.548 76.407 66.2278 78.4205 64.627C80.6829 62.8204 81.882 60.4878 81.9951 57.6521C82.063 55.5481 81.4295 53.6043 80.0494 51.8891L80.0947 51.9577ZM25.3905 44.9599V48.4588H17.5401V44.9599H25.3905ZM25.3905 36.1555V39.7001H17.5401V36.1555H25.3905ZM47.3129 35.881V35.8353C47.3355 35.355 47.3808 34.8977 47.4713 34.486C47.6523 33.6399 48.1726 33.2511 49.0776 33.2511H50.435C51.3626 33.2511 52.0413 33.9143 52.1318 34.8519C52.1544 35.195 52.1318 35.538 52.1318 35.9039H47.2903L47.3129 35.881ZM47.3582 48.4588V44.2967H52.1996V48.4588H47.3582ZM69.6425 44.2967V48.4588H64.7784V44.2967H69.6425ZM67.5385 33.2511C68.9412 33.2511 69.5068 33.7542 69.6651 35.1721C69.6878 35.4008 69.6878 35.6523 69.6651 35.9039H64.7106C64.7106 35.9039 64.7106 35.8353 64.7106 35.7896C64.7784 35.2636 64.8237 34.7833 64.9594 34.326C65.2309 33.4798 65.5703 33.2511 66.5431 33.2511H67.4933H67.5385Z" fill="#991F23"/>
</svg>
