<svg width="64" height="79" viewBox="0 0 64 79" fill="none" xmlns="http://www.w3.org/2000/svg">
    <path d="M60.5692 66.8031V59.8493C61.5318 59.8271 62.5191 59.7827 63.4817 59.7605C63.457 58.5164 63.4323 57.2944 63.4076 56.0503C62.3957 56.0281 61.3837 55.9837 60.3718 55.9615C60.3718 55.3616 60.3718 54.8728 60.3718 54.3619C60.3718 48.4967 60.3718 42.6538 60.3718 36.7886C60.3718 35.1668 60.199 33.5894 58.5453 32.4564C58.8168 32.2342 59.0143 32.1009 59.187 31.9676C60.4458 31.0789 61.0629 29.9681 60.5445 28.524C60.0756 27.2355 58.8909 26.5912 56.9657 26.5245C56.2499 26.5245 55.5341 26.5245 54.7937 26.5245C54.7196 25.5248 54.6703 24.7028 54.6209 23.8141H50.5731C50.4744 24.725 50.3509 25.5915 50.2522 26.4135C45.7354 26.8578 45.1678 27.0577 44.6001 28.5463C43.9337 30.3458 45.0443 31.4566 46.624 32.5008C44.995 33.5894 44.7975 35.1001 44.7975 36.6775C44.7975 42.5871 44.7975 48.4745 44.7975 54.3841C44.7975 54.8951 44.7975 55.3838 44.7975 55.9615H39.1701C39.1701 55.406 39.1701 54.9173 39.1701 54.4063C39.1701 49.0299 39.1701 43.6313 39.1701 38.2549C39.1701 35.8999 38.7258 35.5 36.0848 35.4334C35.1716 35.4112 34.2337 35.4334 33.1724 35.4334C33.1724 34.6558 33.1724 34.056 33.1724 33.4561C33.1724 27.8353 33.1971 22.2145 33.123 16.5938C33.0737 12.9725 31.0991 10.5731 27.5449 9.90658C26.3849 9.68441 26.0147 9.2623 25.8419 8.19591C25.1755 4.21915 22.7567 1.53094 18.388 0.420118C14.0933 -0.668492 10.4898 0.375685 7.55264 3.3527C5.52873 5.39662 5.01041 7.88487 5.01041 10.5286C5.01041 28.5685 5.01041 46.5861 5.01041 64.6259C5.01041 65.359 5.01041 66.0922 5.01041 67.0031H0V78.9556C21.3251 78.9556 42.6749 78.9778 64 79C63.9753 74.9566 63.9506 70.9132 63.926 66.8698C62.8153 66.8476 61.7046 66.8031 60.5939 66.7809L60.5692 66.8031ZM29.0999 66.8698H26.3602V39.2546H29.0999V66.8698ZM29.1986 35.2556H26.2862V13.439C28.0386 13.5945 29.1492 14.3499 29.1739 15.7273C29.248 22.2145 29.1986 28.7018 29.1986 35.2556ZM44.7235 66.7809H33.5179V39.188C33.9869 39.188 34.4805 39.1435 35.1716 39.1213C35.221 39.8767 35.3197 40.5432 35.3197 41.2319C35.3197 46.4306 35.3197 51.6292 35.3197 56.8279C35.3197 59.2273 35.838 59.6716 38.5283 59.6938C40.5523 59.6938 42.5762 59.6938 44.6988 59.6938V66.7809H44.7235Z" fill="#991F23"/>
</svg>
