<svg width="70" height="79" viewBox="0 0 70 79" fill="none" xmlns="http://www.w3.org/2000/svg">
    <path d="M68.232 32.918C66.5513 32.9675 64.8924 32.918 63.2117 32.918C62.164 32.918 61.6183 33.5374 61.6183 34.7514C61.6183 40.1276 61.6183 45.5038 61.6183 50.8553V51.549C59.261 49.9386 56.9691 48.353 54.6773 46.7921C55.092 45.9002 55.5285 45.0331 55.8996 44.1412C56.729 42.1839 57.2529 40.1276 57.3184 37.9721C57.4057 34.7514 57.3838 31.5058 57.4057 28.2602C57.4057 28.2355 57.4057 28.2107 57.362 28.1611H46.121V27.74C46.121 23.3052 46.121 18.8704 46.121 14.4604C46.121 13.296 45.6844 12.6518 44.8987 12.6518C42.0611 12.6518 39.2236 12.6518 36.4079 12.6518C36.4079 9.20804 36.4079 5.76428 36.4079 2.34529C36.4079 1.92411 36.2987 1.42861 36.1678 1.05698C35.8403 0.165068 35.1855 -0.181786 34.5962 0.0907418C34.0942 0.338495 33.5703 1.52771 33.5921 2.41962C33.6358 5.21922 33.5921 8.04361 33.5921 10.8432V12.6518C30.9074 12.6518 28.2226 12.6518 25.5379 12.6518C24.7521 12.6518 24.3156 13.296 24.3156 14.4604C24.3156 17.5573 24.3156 20.679 24.3156 23.7759C24.3156 25.2376 24.3156 26.6746 24.3156 28.1611H12.5943V28.5575C12.5943 31.1094 12.5943 33.6612 12.5943 36.1883C12.5943 39.9294 13.4674 43.3979 15.2572 46.5444C15.2791 46.5939 15.3009 46.6435 15.3446 46.7426C13.0527 48.3282 10.7608 49.889 8.40349 51.5242V51.1774C8.40349 45.702 8.40349 40.2267 8.40349 34.7514C8.40349 33.4878 7.87964 32.8932 6.76645 32.8932C5.10758 32.8932 3.44871 32.918 1.78983 32.8932C0.916745 32.8932 0.305582 33.1905 0 34.132V67.4299C0.174618 68.3714 0.283754 69.3624 0.545681 70.2791C1.89897 74.7634 4.62738 77.5383 8.66542 78.7027C9.16745 78.8513 9.66947 78.9009 10.1715 79H59.8067C60.5706 78.8266 61.3346 78.7275 62.0549 78.4797C66.2894 76.9189 68.865 73.6238 69.8254 68.6935C69.9127 68.2475 69.9345 67.8016 70 67.3556V34.1567C69.6944 33.2153 69.0833 32.8932 68.2102 32.918H68.232ZM51.2722 35.3212V37.3032C51.2722 37.9474 50.8138 38.4676 50.2463 38.4676H42.454C41.8865 38.4676 41.4281 37.9474 41.4281 37.3032V35.3212C41.4281 34.677 41.8865 34.1567 42.454 34.1567H50.2463C50.8138 34.1567 51.2722 34.677 51.2722 35.3212ZM18.8151 35.3212C18.8151 34.677 19.2735 34.1567 19.841 34.1567H27.6333C28.2008 34.1567 28.6592 34.677 28.6592 35.3212V37.3032C28.6592 37.9474 28.2008 38.4676 27.6333 38.4676H19.841C19.2735 38.4676 18.8151 37.9474 18.8151 37.3032V35.3212ZM8.42532 63.9862C8.42532 63.8128 8.42532 63.7137 8.42532 63.6146C8.42532 60.9636 8.42532 58.3126 8.42532 55.6865C8.42532 55.3892 8.51263 55.2405 8.70907 55.0919C11.3065 53.3328 13.8821 51.549 16.4577 49.7899C16.6978 49.6413 16.9161 49.4679 17.0907 49.344C18.1384 50.335 19.1425 51.3012 20.1684 52.2923C16.2831 56.1572 12.3761 60.0469 8.40349 64.011L8.42532 63.9862ZM58.1478 69.3872C57.7767 69.4615 57.4057 69.4863 57.0346 69.4863C42.2357 69.4863 27.4587 69.4863 12.6598 69.4863C11.241 69.4863 10.0842 68.8174 9.18927 67.4795C13.6202 63.0447 18.0511 58.6595 22.4821 54.2247C23.2679 54.9184 24.0536 55.5874 24.8612 56.2811C30.0343 60.7902 31.1693 64.7542 34.7708 64.9276C35.0109 64.9276 35.1855 64.9276 35.2947 64.9276C38.4378 64.7294 39.6601 61.1122 43.0215 58.1888C44.5276 56.8757 46.0337 55.5626 47.5616 54.2247C51.9925 58.6347 56.4016 63.0447 60.8544 67.4795C60.1559 68.5448 59.2828 69.189 58.1696 69.412L58.1478 69.3872ZM61.6183 63.788C61.6183 63.788 61.6183 63.8623 61.5747 63.9614C57.6458 60.0469 53.7605 56.1572 49.8098 52.2179C50.3336 51.7472 50.8793 51.3012 51.3814 50.8057C51.8834 50.335 52.3636 49.8147 52.8874 49.2697C54.59 50.4341 56.2925 51.6233 58.0168 52.7878C59.13 53.5558 60.2214 54.299 61.3346 55.0671C61.4655 55.1662 61.5965 55.3644 61.6183 55.513C61.6183 58.2631 61.6183 61.0131 61.6183 63.7632V63.788Z" fill="#991F23"/>
</svg>
