<svg width="74" height="75" viewBox="0 0 74 75" fill="none" xmlns="http://www.w3.org/2000/svg">
    <path d="M53.2019 13.2453V26.1117H42.0998V38.9538H30.9767V26.1601H19.8746V13.2937H30.9557V0.5H42.0578V13.2453H53.2019Z" fill="#991F23"/>
    <path d="M57.3573 74.5C51.481 74.5 45.5836 74.5 39.7073 74.4758C39.7073 73.7489 39.7492 72.6101 39.8122 71.2047C39.8962 68.6363 40.3369 64.299 40.7146 59.041C40.8406 57.1995 41.1554 55.4306 42.0158 53.8556C42.6035 52.7895 43.38 51.9172 44.1985 51.0934C47.8502 47.483 51.481 43.8484 55.1537 40.2623C56.4759 38.9539 57.819 37.6697 59.1832 36.3854C59.7288 35.8766 60.2955 35.4162 60.8621 34.9074C61.1769 34.6166 61.5337 34.6166 61.9115 34.7135C63.1707 35.0285 64.346 36.6035 64.4509 38.0816C64.5139 38.8085 64.1151 39.2689 63.7164 39.6808C62.2683 41.2315 60.7992 42.7581 59.3301 44.2846C57.9449 45.7384 56.5178 47.168 55.1537 48.6461C54.4611 49.3972 54.4191 50.3422 54.8808 51.2872C55.2376 52.0141 55.7833 52.4503 56.4759 52.7168C57.0005 52.9107 57.4832 52.7168 57.882 52.3776C58.9733 51.4084 60.0436 50.4391 61.093 49.4457C62.8979 47.7011 64.6818 45.9565 66.4447 44.1877C66.5916 44.0423 66.7175 43.8 66.7175 43.5819C66.9483 40.5046 67.1372 37.4516 67.3681 34.3743C67.6409 30.8367 67.9557 27.3232 68.2285 23.7856C68.2915 23.0587 68.6903 22.5983 69.11 22.1379C69.4668 21.7502 69.8655 21.411 70.2223 21.0475C71.0408 20.1995 72.5519 20.6841 73.0136 21.6048C73.1395 21.8471 73.1395 22.1621 73.1605 22.4287C73.2654 24.1975 73.3494 25.9663 73.4333 27.7351C73.6012 32.0482 73.7691 36.3854 73.916 40.6985C73.979 42.6369 73.958 44.5996 74.0209 46.538C74.0629 47.483 73.7271 48.1615 73.1395 48.743C71.0828 50.8026 69.0261 52.8864 66.9693 54.9218C64.0941 57.781 61.2189 60.5917 58.3227 63.4267C58.1338 63.6205 58.0499 63.8144 58.0289 64.0809C57.903 66.1405 57.6301 68.1759 57.6091 70.2355C57.6091 71.2532 57.5672 72.7312 57.3783 74.5H57.3573Z" fill="#991F23"/>
    <path d="M16.6426 74.5C22.561 74.5 28.4793 74.5 34.3976 74.4758C34.3556 73.8216 34.2927 72.6343 34.2087 71.2047C33.9779 67.0128 33.6211 63.4752 33.3063 59.041C33.1804 57.1995 32.8656 55.4306 32.0051 53.8556C31.4175 52.7895 30.6409 51.9172 29.8224 51.0934C26.1707 47.483 22.54 43.8484 18.8673 40.2623C17.5451 38.9539 16.2019 37.6697 14.8378 36.3854C14.2921 35.8766 13.7254 35.4162 13.1588 34.9074C12.844 34.6166 12.4872 34.6166 12.1095 34.7135C10.8502 35.0285 9.67497 36.6035 9.57003 38.0816C9.50707 38.8085 9.90582 39.2689 10.3046 39.6808C11.7527 41.2315 13.2218 42.7581 14.6908 44.2846C16.076 45.7384 17.5031 47.168 18.8673 48.6461C19.5598 49.3972 19.6018 50.3422 19.1401 51.2872C18.7833 52.0141 18.2376 52.4503 17.5451 52.7168C17.0204 52.9107 16.5377 52.7168 16.1389 52.3776C15.0476 51.4084 13.9773 50.4391 12.9279 49.4457C11.1231 47.7011 9.33917 45.9565 7.57627 44.1877C7.42936 44.0423 7.30344 43.8 7.30344 43.5819C7.07258 40.5046 6.8837 37.4516 6.65284 34.3743C6.38001 30.8367 6.06521 27.3232 5.79238 23.7856C5.72942 23.0587 5.33067 22.5983 4.91093 22.1379C4.55415 21.7502 4.1554 21.411 3.79862 21.0475C2.98013 20.1995 1.46907 20.6841 1.00735 21.6048C0.881432 21.8471 0.881432 22.1621 0.860445 22.4287C0.75551 24.1975 0.671562 25.9663 0.587614 27.7351C0.419719 32.0482 0.251823 36.3854 0.104914 40.6985C0.0419536 42.6369 0.0629405 44.5996 -2.03159e-05 46.538C-0.0419942 47.483 0.293797 48.1615 0.881432 48.743C2.93815 50.8026 4.99487 52.8864 7.0516 54.9218C9.92681 57.781 12.802 60.5917 15.6982 63.4267C15.7822 63.5236 15.8661 63.6205 15.9081 63.7175C15.992 63.8871 15.992 64.0325 15.992 64.0809C15.992 64.3717 16.2649 68.6363 16.6426 74.5Z" fill="#991F23"/>
</svg>
