<svg width="100" height="79" viewBox="0 0 100 79" fill="none" xmlns="http://www.w3.org/2000/svg">
    <path d="M36.2734 60.1394C40.3683 60.1394 43.7122 64.3102 43.7606 69.5237C43.8091 74.6759 40.4653 78.9387 36.346 79C32.2753 79.0614 28.883 74.7986 28.8588 69.6157C28.8588 64.4329 32.1784 60.1394 36.2491 60.1394H36.2734Z" fill="#991F23"/>
    <path d="M80.1308 60.1394C84.2258 60.1394 87.5697 64.3715 87.5939 69.5544C87.5939 74.7066 84.2501 79 80.1551 79C76.0843 79 72.692 74.7372 72.692 69.5851C72.692 64.4329 76.0601 60.1701 80.1308 60.1394Z" fill="#991F23"/>
    <path d="M16.0408 60.1394C20.1357 60.1394 23.5038 64.3409 23.528 69.5237C23.528 74.6759 20.2084 78.9387 16.1134 79C12.0427 79.0307 8.67463 74.7986 8.6504 69.6157C8.62617 64.4329 11.97 60.1701 16.065 60.1394H16.0408Z" fill="#991F23"/>
    <path d="M0 4.47748C0.0484614 21.8661 0.0242307 39.2853 0 56.6739C0 58.514 0.387691 59.9553 1.74461 60.8447C1.88999 60.9367 1.98692 61.3354 1.98692 61.5807C2.01115 62.9915 1.98692 64.4022 1.98692 65.7822C2.01115 67.9596 3.29537 69.5237 5.06421 69.5237C5.62152 62.2554 8.50497 57.2566 14.3203 56.0299C19.8207 54.8645 23.7218 58.2073 26.1691 64.4022C28.6164 57.4099 33.826 55.0485 37.9937 55.9379C40.6106 56.4899 42.7914 58.0233 44.536 60.5687C46.2564 63.1141 47.1044 66.0889 47.1771 69.4623C54.5433 69.4623 61.8609 69.4623 69.1786 69.4623C69.4694 60.538 75.212 55.6925 80.1793 55.7232C85.7281 55.7539 91.0347 61.4581 91.0831 69.4623C93.1912 69.4623 95.275 69.585 97.3831 69.4317C98.9096 69.3397 100 67.6223 100 65.6902C100 61.0594 100.073 56.4286 100 51.7977C99.9515 49.4057 98.9339 47.6269 97.2135 46.5842C96.0989 45.9095 94.96 45.3575 93.8212 44.7748C91.7131 43.6401 90.0654 41.8307 88.8539 39.3773C87.1335 35.8812 85.4131 32.3851 83.6685 28.889C82.457 26.4356 80.6882 25.2088 78.4105 25.2088C76.3266 25.2088 74.2428 25.2088 72.1832 25.2088C69.954 25.2088 68.7909 26.6809 68.7909 29.533C68.7909 36.9239 68.7909 44.3148 68.7909 51.7057V52.8098H67.2886C47.1529 52.8098 27.0899 52.8098 6.9542 52.8098V51.4297V47.6883H65.859C65.859 33.2745 65.859 18.8606 65.859 4.44682C65.859 1.44138 64.6959 0 62.3455 0C42.7187 0 23.1403 0.0613354 3.53768 0C1.45384 0 0 1.65606 0 4.47748ZM71.529 30.177C71.529 28.6743 72.0863 27.9689 73.2736 27.9383C74.9697 27.9383 76.6659 27.9383 78.3862 27.9383C79.5735 27.9383 80.4701 28.5823 81.0758 29.8703C82.9416 33.6425 84.8074 37.4146 86.6489 41.2174C86.8427 41.6467 87.0608 42.3828 86.9154 42.6588C86.7216 42.9961 86.1643 43.1801 85.7524 43.1801C83.6928 43.2415 81.6331 43.1801 79.5978 43.1801C77.5139 43.1801 75.4301 43.1801 73.3705 43.1801C72.159 43.1801 71.5532 42.4441 71.5532 40.9414C71.5532 37.3533 71.5532 33.7651 71.5532 30.177H71.529Z" fill="#991F23"/>
</svg>
