<svg width="64" height="71" viewBox="0 0 64 71" fill="none" xmlns="http://www.w3.org/2000/svg">
    <path d="M40.5266 49.753C39.3755 49.753 38.4547 50.6136 38.4291 51.7201C38.4035 52.8758 39.35 53.8102 40.5522 53.8102C41.7545 53.8102 42.7009 52.8512 42.6498 51.6955C42.5986 50.589 41.6777 49.7284 40.5266 49.753Z" fill="#991F23"/>
    <path d="M63.9833 61.8265C63.9321 60.6708 63.7275 59.4659 63.3182 58.4085C60.9393 52.4333 58.4581 46.4826 56.0791 40.5073C55.721 39.5975 55.5164 38.5647 55.5164 37.6057C55.4908 25.8273 55.5164 14.0243 55.5164 2.24586V0.5H51.1934V4.43434H34.1828V0.52459H29.911V4.43434H12.8493V0.5H8.60307V2.29504C8.60307 14.1226 8.60307 25.9748 8.60307 37.8024C8.60307 38.6385 8.4496 39.5237 8.11706 40.3106C5.89162 45.6957 3.6406 51.1054 1.26168 56.4414C0.391966 58.3102 -0.06847 60.179 0.00826929 62.2199C0.110588 64.9002 0.0338491 67.5559 0.0338491 70.3591C1.00588 70.3591 1.82443 70.2607 2.59183 70.3591C5.96836 70.9001 8.65423 69.8919 10.6495 67.187C11.2122 66.4248 12.0052 66.228 12.9772 66.228C24.4881 66.2526 35.999 66.4002 47.4843 66.1543C51.0399 66.0805 53.8281 66.7444 55.9001 69.5722C56.1559 69.9411 56.7186 70.2853 57.1535 70.3099C59.3789 70.3837 61.5788 70.3345 63.9833 70.3345C63.9833 67.4329 64.0345 64.6051 63.9577 61.8019L63.9833 61.8265ZM29.7831 45.7449V49.63H25.7415V45.7449H29.7831ZM21.2651 57.8184H17.2235V53.9332H21.2651V57.8184ZM21.2651 49.63H17.2235V45.7449H21.2651V49.63ZM29.7831 57.8922C28.5809 57.8922 27.4554 57.9413 26.3554 57.8676C26.1252 57.8676 25.7159 57.4741 25.6904 57.2282C25.6136 56.1463 25.6648 55.0889 25.6648 53.9332H29.7831V57.8922ZM29.732 37.2861V37.2369H12.9772C12.9772 37.2369 12.9005 37.2369 12.8493 37.2369V8.46703H50.8864C50.8864 8.46703 50.8864 8.63916 50.8864 8.73752V37.2369H34.2852V37.2861C32.7504 37.2861 31.2412 37.2861 29.7064 37.2861H29.732ZM40.3476 57.8922C36.8432 57.7938 34.1317 55.0644 34.2084 51.6956C34.2596 48.2776 37.1501 45.6219 40.7057 45.6957C44.2613 45.7695 47.0239 48.5481 46.9216 51.9661C46.8193 55.384 43.9287 58.0151 40.3732 57.9167L40.3476 57.8922Z" fill="#991F23"/>
    <path d="M22.4673 23.7372C23.3626 23.4668 23.9765 22.6553 23.9509 21.7209C23.9509 21.3766 23.8486 21.057 23.7718 20.6635C24.7694 19.9013 25.8182 19.0898 26.867 18.3029C26.9437 18.2292 27.1484 18.2538 27.2507 18.3029C28.3762 18.7947 29.2203 18.6226 30.1156 17.7374C30.1924 17.6636 30.3714 17.5898 30.4993 17.6144C31.2411 17.8112 31.9829 18.0079 32.7248 18.2046C32.7759 18.5734 32.7759 18.8931 32.8527 19.1882C33.2108 20.3193 34.4642 20.934 35.6153 20.5652C36.7664 20.1963 37.3803 18.9915 36.971 17.8603C36.8943 17.639 36.8175 17.4669 37.0477 17.2456C38.0965 16.262 39.0941 15.2784 40.1429 14.2948C40.2452 14.1965 40.501 14.1473 40.6545 14.1965C41.1917 14.3686 41.7288 14.3932 42.266 14.1965C43.3915 13.7785 43.9543 12.6227 43.545 11.5408C43.1357 10.4343 41.9079 9.86871 40.7568 10.2376C39.6313 10.6064 39.0174 11.8113 39.4011 12.9178C39.4778 13.1637 39.5546 13.3358 39.2988 13.5571C38.2756 14.5161 37.2524 15.4997 36.2292 16.4833C36.1269 16.5817 35.8711 16.6554 35.7176 16.6063C34.8223 16.2866 34.0549 16.4587 33.3387 17.0489C33.2363 17.1226 33.0317 17.1718 32.9038 17.1472C32.1876 16.9751 31.4969 16.7784 30.7807 16.5571C30.6528 16.5079 30.4993 16.3358 30.4737 16.2128C30.2435 14.9342 29.1436 14.1473 27.839 14.3932C26.6623 14.6145 25.8694 15.7948 26.1763 16.9751C26.2531 17.2456 26.1763 17.3931 25.9717 17.5407C25.0764 18.2046 24.2067 18.8931 23.337 19.5816C23.0556 19.8029 22.851 19.9013 22.4417 19.7291C21.5464 19.3603 20.5232 19.7291 19.9349 20.4668C19.3977 21.1799 19.3977 22.1881 19.9349 22.9258C20.472 23.6635 21.4952 23.9831 22.3905 23.7127L22.4673 23.7372ZM41.473 11.2211C42.087 11.2211 42.5985 11.6883 42.5985 12.2539C42.5985 12.8195 42.1125 13.2867 41.5242 13.3113C40.9359 13.3113 40.3987 12.8195 40.3987 12.2539C40.3987 11.6883 40.8847 11.2211 41.473 11.2211ZM34.9246 17.5407C35.5129 17.5407 35.999 17.9833 36.0245 18.5488C36.0245 19.1144 35.5385 19.6308 34.9246 19.6308C34.3363 19.6308 33.8247 19.139 33.8247 18.5488C33.8247 17.9833 34.3107 17.5407 34.9246 17.5407ZM28.3506 15.426C28.9134 15.426 29.425 15.9177 29.4505 16.4587C29.4505 17.0243 28.9389 17.5407 28.3506 17.5407C27.7879 17.5407 27.2763 17.0489 27.2507 16.5079C27.2507 15.9423 27.7623 15.426 28.3506 15.426ZM21.8022 20.7127C22.3905 20.7127 22.8765 21.1799 22.8765 21.7455C22.8765 22.3111 22.3649 22.8028 21.751 22.8028C21.1627 22.8028 20.6767 22.3111 20.6767 21.7455C20.6767 21.1553 21.1883 20.6881 21.8022 20.7127Z" fill="#991F23"/>
    <path d="M45.3612 35.3926V34.9992C45.3612 34.6057 45.0287 34.2615 44.5938 34.2615H43.673V33.6959C43.673 28.9501 43.673 24.2289 43.673 19.4831C43.673 18.6717 43.5706 18.5487 42.7009 18.5487C41.908 18.5487 41.0894 18.5487 40.2964 18.5487C39.4267 18.5487 39.3244 18.6471 39.3244 19.4831C39.3244 24.2289 39.3244 28.9993 39.3244 33.7451V34.2615H37.1245V33.6713C37.1245 31.0156 37.1245 28.3354 37.1245 25.6797C37.1245 25.0158 36.9711 24.8682 36.2804 24.8682C35.3851 24.8682 34.4898 24.8682 33.6201 24.8682C32.9039 24.8682 32.7504 25.0158 32.7504 25.7043C32.7504 28.36 32.7504 31.0402 32.7504 33.6959V34.2615H30.5505V33.7205C30.5505 30.3271 30.5505 26.9338 30.5505 23.565C30.5505 22.9257 30.4226 22.7781 29.732 22.7781C28.8367 22.7781 27.9414 22.7781 27.0717 22.7781C26.2787 22.7781 26.1764 22.8765 26.1764 23.6388C26.1764 27.0075 26.1764 30.3763 26.1764 33.7451V34.2615H23.9765V33.7205C23.9765 32.0484 23.9765 30.4009 23.9765 28.7288C23.9765 28.1878 23.7975 28.0157 23.2347 28.0157C22.2883 28.0157 21.3162 28.0157 20.3698 28.0157C19.7814 28.0157 19.6024 28.1878 19.6024 28.7534C19.6024 30.4255 19.6024 32.073 19.6024 33.7451V34.2615H18.7071C18.2978 34.2615 17.9397 34.5811 17.9397 34.9992V35.3926C17.9397 35.786 18.2722 36.1303 18.7071 36.1303H44.5938C45.0031 36.1303 45.3612 35.8106 45.3612 35.3926Z" fill="#991F23"/>
</svg>
