<svg width="79" height="79" viewBox="0 0 79 79" fill="none" xmlns="http://www.w3.org/2000/svg">
    <path d="M44.4926 32.5869H34.2276C33.2643 32.5869 32.4833 33.3678 32.4833 34.331V44.5941C32.4833 45.5573 33.2643 46.3381 34.2276 46.3381H44.4926C45.456 46.3381 46.2369 45.5573 46.2369 44.5941V34.331C46.2369 33.3678 45.456 32.5869 44.4926 32.5869Z" fill="#991F23"/>
    <path d="M78.0604 39.5184C76.8975 38.311 74.7729 38.1321 73.6324 39.3395C72.8497 40.1445 72.0893 40.2563 71.1277 40.0774C70.3449 37.8191 69.5622 37.2601 67.1022 37.2601C65.4473 37.2601 63.77 37.2601 62.048 37.2601V32.5645C62.4953 32.5645 62.8755 32.5645 63.278 32.5645C65.1342 32.5645 66.9904 32.5645 68.8466 32.5645C70.3226 32.5645 71.0159 31.9832 70.9935 30.8428C70.9711 29.7696 70.2331 29.2106 68.8689 29.2106C67.3482 29.2106 65.8051 29.2106 64.2844 29.2106H62.048V24.5821C62.4506 24.5821 62.8084 24.5821 63.1662 24.5821C65.1789 24.5821 67.1693 24.5821 69.182 24.5821C70.3449 24.5821 71.0382 23.8666 71.0159 22.8604C71.0159 21.899 70.3449 21.2505 69.2268 21.1835C68.8018 21.1611 68.3546 21.1835 67.9073 21.1835C65.9617 21.1835 63.9937 21.1835 62.4282 21.1835C61.8915 19.909 61.6678 18.6792 60.9522 17.986C60.2366 17.2929 58.9842 17.114 57.8213 16.6444C57.8213 16.5103 57.8213 16.1525 57.8213 15.7948C57.8213 13.8271 57.8213 11.8595 57.8213 9.89183C57.7989 8.55025 56.8596 7.7453 55.7191 8.03597C54.6904 8.30429 54.3996 9.08688 54.3996 10.0483C54.3996 12.329 54.3996 14.6097 54.3996 16.9575H49.7704V16.1525C49.7704 14.0284 49.7704 11.9266 49.7704 9.80239C49.7704 8.70676 49.0995 8.01361 48.1378 7.99125C47.1314 7.96889 46.5053 8.57261 46.4382 9.69059C46.3935 10.2719 46.4382 10.8533 46.4382 11.4346C46.4382 13.2458 46.4382 15.0569 46.4382 16.9128H40.646V11.4123C42.9718 10.585 43.5309 9.84711 43.4862 7.4099C43.4862 6.64967 43.6427 6.09068 44.2465 5.50933C45.5213 4.25719 45.4318 2.24482 44.2018 0.992674C42.9271 -0.304187 40.892 -0.326546 39.5725 0.903236C38.3202 2.0883 38.1189 4.21247 39.3936 5.41989C40.2211 6.20248 40.2211 7.00743 40.1093 7.94653C37.9847 8.57261 37.2914 9.44463 37.2691 11.6359C37.2691 13.4023 37.2691 15.1911 37.2691 16.9575H32.5727C32.5727 16.5326 32.5727 16.1749 32.5727 15.8171C32.5727 13.8048 32.5727 11.8148 32.5727 9.80239C32.5727 8.59496 31.79 7.92417 30.7165 8.03597C29.7996 8.12541 29.2405 8.7962 29.2405 9.86947C29.2405 12.2172 29.2405 14.5874 29.2405 16.9575H24.6112C24.6112 14.7439 24.6112 12.5973 24.6112 10.4508C24.6112 10.026 24.5889 9.57879 24.4547 9.15396C24.2534 8.39373 23.6943 8.03597 22.9116 8.01361C22.1289 8.01361 21.5698 8.37137 21.3461 9.10924C21.2119 9.55643 21.1896 10.0483 21.1896 10.5179C21.1896 12.6644 21.1896 14.7886 21.1896 16.9128C17.8127 17.36 17.4772 17.6954 16.8958 21.1835C16.5156 21.1835 16.1354 21.1835 15.7328 21.1835C13.8096 21.1835 11.8639 21.1611 9.94065 21.1835C8.73302 21.1835 8.06211 21.8319 8.01738 22.8381C7.99501 23.9113 8.66592 24.5598 9.94065 24.6045C10.8128 24.6269 11.685 24.6045 12.5572 24.6045C14.0108 24.6045 15.4645 24.6045 16.9628 24.6045V29.2329C16.5603 29.2329 16.2025 29.2329 15.8447 29.2329C13.8319 29.2329 11.8416 29.2329 9.82884 29.2329C8.57647 29.2329 7.77138 30.1721 8.03974 31.29C8.28574 32.2515 8.97902 32.5869 9.91829 32.5869C12.2441 32.5869 14.5699 32.5869 16.9405 32.5869V38.3781H11.439C10.5892 36.0526 9.8512 35.516 7.41356 35.516C6.65319 35.516 6.0941 35.3595 5.51265 34.7781C4.19319 33.4589 2.18046 33.5931 0.905729 34.9123C-0.30191 36.1644 -0.30191 38.1992 0.905729 39.4737C2.091 40.7258 4.28264 40.9047 5.42319 39.6526C6.20592 38.7805 7.01101 38.8476 7.95029 38.937C8.17392 40.0998 8.71065 41.0389 9.82884 41.486C10.3879 41.7096 11.0365 41.7544 11.6403 41.7544C13.407 41.7991 15.1738 41.7544 17.0299 41.7544V46.4499C16.3143 46.4499 15.7776 46.4499 15.2408 46.4499C13.407 46.4499 11.5956 46.4275 9.78411 46.4499C8.64356 46.4723 8.01738 47.0983 8.01738 48.1045C8.01738 49.0883 8.68829 49.7368 9.78411 49.7815C10.7681 49.8038 11.7521 49.7815 12.7361 49.7815C14.145 49.7815 15.5539 49.7815 16.9628 49.7815V54.4099C16.4932 54.4099 16.0907 54.4099 15.6881 54.4099C13.7201 54.4099 11.7521 54.4099 9.78411 54.4099C8.93429 54.4099 8.17392 54.8124 8.10683 55.6621C8.06211 56.2434 8.3752 56.9813 8.75538 57.4509C9.00138 57.7639 9.69465 57.7863 10.1867 57.8086C12.4454 57.8533 14.6818 57.8086 16.9181 57.8086C17.1194 60.7601 17.835 61.8334 21.1896 62.0793C21.1896 62.4147 21.1896 62.7725 21.1896 63.1302C21.1896 64.9637 21.1896 66.7748 21.1896 68.6083C21.1896 70.2406 21.7487 71.0008 22.934 70.9785C24.0745 70.9785 24.6112 70.2182 24.6112 68.6531C24.6112 67.7139 24.6112 66.7525 24.6112 65.8134C24.6112 64.5612 24.6112 63.2867 24.6112 62.0569H29.2405C29.2405 64.4271 29.2405 66.7301 29.2405 69.0108C29.2405 70.263 29.8891 70.9785 30.9401 70.9785C31.9689 70.9785 32.5727 70.33 32.5951 69.1003C32.6174 67.5351 32.5951 65.9699 32.5951 64.4047C32.5951 63.6221 32.5951 62.8395 32.5951 62.0346H38.3649V67.6021C36.1732 68.2506 35.5023 69.1226 35.5247 71.4033C35.5247 72.2306 35.4129 72.879 34.742 73.5275C33.4449 74.7796 33.6014 76.792 34.8538 78.0441C36.1509 79.3186 38.186 79.3186 39.4831 78.0441C40.7131 76.8367 40.8696 74.7125 39.5725 73.5275C38.7451 72.7672 38.8122 71.9846 38.8793 71.0903C41.1827 70.3077 41.7194 69.5251 41.7418 67.0655C41.7418 65.3885 41.7418 63.7339 41.7418 62.0122H46.3935C46.3935 62.4147 46.4382 62.7725 46.4382 63.1302C46.4382 64.9861 46.4382 66.8419 46.4382 68.6978C46.4382 70.263 46.9973 71.0008 48.1378 70.9785C49.2336 70.9561 49.7704 70.2182 49.7704 68.7425C49.7704 67.5798 49.7704 66.4171 49.7704 65.2544C49.7704 64.1811 49.7704 63.1079 49.7704 62.0569H54.3996C54.3996 64.4494 54.3996 66.7301 54.3996 69.0332C54.3996 70.3077 55.0706 70.9785 56.144 70.9785C57.1504 70.9785 57.7766 70.2853 57.8213 69.0779C57.8437 68.3847 57.8213 67.6916 57.8213 66.9984C57.8213 65.3438 57.8213 63.6668 57.8213 62.3923C59.096 61.8334 60.3484 61.6321 61.0417 60.9166C61.7349 60.2011 61.9138 58.949 62.3611 57.7863C62.5177 57.7863 62.8755 57.7863 63.2333 57.7863C65.2013 57.7863 67.1693 57.8086 69.1373 57.7863C70.3226 57.7639 70.9935 57.0931 70.9935 56.0869C70.9935 55.0807 70.3226 54.4323 69.1373 54.3876C68.444 54.3652 67.7508 54.3876 67.0575 54.3876C65.4026 54.3876 63.7253 54.3876 62.0704 54.3876V49.7591C62.4729 49.7591 62.8084 49.7591 63.1215 49.7591C65.1342 49.7591 67.1246 49.7591 69.1373 49.7591C70.3002 49.7591 70.9935 49.1107 71.0159 48.0822C71.0159 47.0536 70.3449 46.4499 69.1373 46.4052C68.6677 46.4052 68.198 46.4052 67.706 46.4052C65.8275 46.4052 63.9489 46.4052 62.0704 46.4052V40.614H67.5942C68.2651 42.7829 69.1149 43.4761 71.3066 43.4761C72.2011 43.4761 72.9168 43.6326 73.6324 44.3257C74.9295 45.5779 76.9199 45.3766 78.1275 44.0574C79.3128 42.7829 79.2904 40.7482 78.0604 39.496V39.5184ZM52.3646 37.7743C53.6616 37.7743 54.4891 38.4451 54.5115 39.4513C54.5338 40.5022 53.684 41.173 52.3198 41.1954C51.4924 41.1954 50.6425 41.1954 49.8151 41.2177C49.748 41.2177 49.6809 41.2848 49.502 41.3743C49.502 41.8885 49.502 42.4699 49.502 43.0289C49.502 43.3419 49.5244 43.6549 49.5467 44.0798C50.5755 44.0798 51.5595 44.0798 52.5435 44.0798C53.7511 44.1021 54.5338 44.84 54.5115 45.8238C54.4891 46.7853 53.7511 47.4337 52.5658 47.4784C52.1186 47.5008 51.6936 47.4784 51.2464 47.4784C50.3295 47.4784 49.3007 47.2325 49.0547 48.5741C49.0324 48.7529 48.7864 48.9989 48.6075 49.0213C47.2433 49.2672 47.534 50.3181 47.5116 51.2125C47.5116 51.7268 47.5116 52.2411 47.4893 52.733C47.3998 53.7615 46.7289 54.4323 45.8344 54.4547C44.9174 54.4547 44.1571 53.7392 44.1124 52.6882C44.0676 51.6373 44.1124 50.5864 44.1124 49.4908H41.2051C41.2051 50.497 41.2051 51.4361 41.2051 52.3529C41.1827 53.6274 40.4671 54.4547 39.4607 54.4323C38.4767 54.4099 37.8282 53.605 37.7834 52.3752C37.7611 51.4585 37.7611 50.5641 37.7387 49.6473C37.7387 49.625 37.694 49.5802 37.6493 49.4908H34.8985C34.8985 50.4523 34.8985 51.3914 34.8985 52.3081C34.8985 53.5826 34.1829 54.4323 33.1765 54.4323C32.1702 54.4323 31.4992 53.5826 31.4769 52.3081C31.4769 51.8386 31.4769 51.369 31.4769 50.8771C31.4992 50.0722 31.5887 49.2672 30.4929 49.0436C30.2469 48.9989 29.9561 48.6859 29.8891 48.4623C29.6207 47.3443 28.8156 47.3666 27.9658 47.4337C27.4514 47.4784 26.937 47.4561 26.445 47.4337C25.2598 47.389 24.4547 46.6288 24.4994 45.6673C24.5441 44.7282 25.3269 44.0574 26.4674 44.0127C27.4514 43.9903 28.4131 44.0127 29.4641 44.0127V41.1283C28.5249 41.1283 27.6303 41.1283 26.7134 41.1283C25.3492 41.1283 24.4994 40.4351 24.4994 39.3842C24.4994 38.3557 25.3492 37.7073 26.7581 37.6849C27.5632 37.6849 28.3683 37.6849 29.1734 37.6849C29.2405 37.6849 29.3076 37.6402 29.4641 37.5955V34.8005C28.5025 34.8005 27.5185 34.8005 26.5569 34.8005C25.3269 34.7781 24.5441 34.1074 24.5441 33.1012C24.5441 32.1173 25.3045 31.4466 26.5345 31.3795C27.0041 31.3795 27.4738 31.3348 27.9658 31.3795C28.8603 31.4242 29.7101 31.4913 29.9785 30.3286C30.0232 30.1273 30.2916 29.859 30.4929 29.8143C31.6781 29.546 31.5887 28.6963 31.544 27.8019C31.5216 27.2206 31.5216 26.6392 31.5663 26.0579C31.6782 25.0517 32.3714 24.3809 33.266 24.4033C34.1382 24.4033 34.8762 25.1188 34.9432 26.1026C34.988 27.1535 34.9432 28.2044 34.9432 29.3447H37.8505C37.8505 28.4056 37.8505 27.4665 37.8505 26.5498C37.8505 25.2529 38.5438 24.4256 39.5502 24.4256C40.5789 24.4256 41.2722 25.2529 41.2945 26.5274C41.2945 27.4442 41.2945 28.3386 41.2945 29.3895H44.1794C44.1794 28.4727 44.1794 27.5336 44.1794 26.5945C44.1794 25.2976 44.828 24.448 45.8344 24.4256C46.8631 24.3809 47.5787 25.2529 47.6011 26.5945C47.6011 27.0417 47.6011 27.4665 47.6011 27.9137C47.534 28.7858 47.534 29.5683 48.6298 29.8367C48.8758 29.9037 49.1665 30.1944 49.2113 30.4404C49.4349 31.5584 50.24 31.4466 51.0451 31.4242C51.5595 31.4242 52.0738 31.4018 52.5658 31.4242C53.7735 31.4689 54.5786 32.1621 54.5786 33.1235C54.5786 34.085 53.7511 34.8005 52.5658 34.8229C51.6266 34.8229 50.6873 34.8229 49.6585 34.8229V37.7073C50.5755 37.7073 51.4924 37.7073 52.4316 37.7073L52.3646 37.7743Z" fill="#991F23"/>
</svg>
