<svg width="79" height="79" viewBox="0 0 79 79" fill="none" xmlns="http://www.w3.org/2000/svg">
    <path d="M34.128 57.1535C34.128 68.479 42.8496 77.7931 54.0676 78.9999V35.307C42.8496 36.5138 34.128 45.828 34.128 57.1535Z" fill="#991F23"/>
    <path d="M59.0604 35.307V78.9999C70.2784 77.7931 79.0316 68.479 79.0316 57.1535C79.0316 45.828 70.31 36.5138 59.0604 35.307Z" fill="#991F23"/>
    <path d="M60.83 30.5726C64.0532 25.7144 65.0012 20.4849 63.5792 14.884C61.9992 8.78806 58.2388 4.36306 52.3928 1.79471C46.5152 -0.804581 40.606 -0.557029 34.8232 2.28982C32.6428 3.37286 30.8416 4.92006 29.1352 6.59103C25.4064 10.2734 21.6144 13.9557 17.8856 17.6071C14.1252 21.2894 10.3964 25.0027 6.57281 28.6541C3.63401 31.47 1.51681 34.7501 0.568806 38.6799C0.347606 39.6702 0.221206 40.6604 0.0316057 41.7743C5.72344e-06 42.517 -0.0315943 43.5072 0.0316057 44.6521C0.284406 47.8394 1.29561 50.253 1.86441 51.4598C3.66561 55.204 6.38321 58.1437 10.0488 60.186C13.904 62.3521 18.0436 63.1566 22.4676 62.6306C24.8376 62.3521 27.0812 61.6713 29.1984 60.6192C29.0404 59.5053 28.9456 58.3294 28.9456 57.1845C28.9456 49.2937 32.5164 42.2076 38.1728 37.3184C42.1228 33.9455 47.0524 31.6247 52.5192 30.8821C53.7832 30.6964 55.1104 30.6036 56.4376 30.6036C57.7648 30.6036 59.1236 30.6964 60.4192 30.8821C60.5456 30.8202 60.6404 30.6964 60.7668 30.5417L60.83 30.5726Z" fill="#991F23"/>
</svg>
