<svg width="70" height="79" viewBox="0 0 70 79" fill="none" xmlns="http://www.w3.org/2000/svg">
    <path d="M61.8001 38.1721V37.3567H50.0362L49.4782 37.512L49.3697 38.1721L49.3387 39.5117C49.3387 40.4435 49.3387 41.3948 49.3387 42.3267C49.3542 44.404 50.5941 45.9377 52.2681 45.9766C52.764 45.9766 53.26 45.9766 53.787 45.9766L53.849 59.7024C53.849 61.5467 53.291 62.2262 51.8031 62.2262H34.9864L33.9479 51.6843H35.0329V52.9851C35.0329 53.3928 35.0329 53.8199 35.0329 54.2276C35.0794 55.14 35.4824 55.9166 36.0868 56.266C36.6293 56.5767 37.2493 56.499 37.7452 56.0331C38.2257 55.5866 38.4892 54.7129 38.5512 54.0528C38.6132 53.2763 38.5977 52.4803 38.5822 51.7231V51.6067H40.5971C42.364 51.6067 42.5965 50.1118 42.612 49.4711C42.6275 48.6557 42.3795 48.1509 42.1625 47.8791C41.806 47.4132 41.2791 47.1802 40.6126 47.1802C39.3417 47.1802 38.0707 47.1802 36.8153 47.1802H33.4364L31.8555 31.183H33.7309V31.3771C33.7309 32.1149 33.7309 32.8332 33.7309 33.5515C33.7309 35.027 34.3974 35.92 35.4824 35.92C36.5363 35.92 37.1873 35.0658 37.2338 33.6486C37.2648 32.8332 37.2648 31.9984 37.2493 31.1053C37.7452 31.1248 38.2257 31.1053 38.7217 31.0859C39.6517 31.0083 40.2406 30.2511 40.2871 29.0474C40.3181 28.3679 40.1786 27.8049 39.8686 27.3972C39.5432 26.9507 39.0472 26.7372 38.3962 26.7372C36.7378 26.7372 35.0639 26.7372 33.4055 26.7372H31.344L30.5691 19.1268C30.2436 15.8847 29.9026 12.6425 29.5616 9.38093C29.4066 7.88604 28.7867 7.20655 27.5622 7.18713C26.8028 7.18713 26.0588 7.18713 25.2993 7.18713H24.3539H21.564C19.3941 7.18713 17.2397 7.18713 15.0698 7.18713C14.2484 7.18713 13.1169 7.40069 12.9309 9.30327C12.6674 11.8465 12.4194 14.3898 12.156 16.933L11.6445 22.0389C11.5205 23.2426 11.3965 24.4463 11.257 25.6694L11.1485 26.7177H4.76281C4.04985 26.7177 2.36043 26.7177 2.32943 28.8727C2.32943 29.5134 2.46892 30.0182 2.74791 30.387C3.24389 31.0083 4.04985 31.1053 4.77831 31.1053H5.39828V31.4354C5.39828 32.2508 5.39828 33.0079 5.39828 33.7651C5.41378 34.6775 5.73927 35.2017 6.00275 35.4735C6.26624 35.7453 6.74672 36.0559 7.47518 35.9006C8.35864 35.7065 8.88562 34.9105 8.88562 33.7068V31.2024H10.7765L9.1801 47.355H6.60723C5.0573 47.355 3.49187 47.355 1.92645 47.355C1.10499 47.355 0.64001 47.7627 0.407521 48.0927C0.175032 48.4033 -0.0729566 48.9858 0.020039 49.8982C0.082036 50.4612 0.376522 51.762 1.94195 51.8008C2.57742 51.8008 3.19739 51.8008 3.86386 51.8008H4.04985V52.0144C4.04985 52.7715 4.04985 53.4898 4.04985 54.2082C4.08085 55.6642 4.76281 56.5961 5.80126 56.6155C6.65372 56.6155 7.55268 55.9748 7.55268 54.1499C7.55268 53.4316 7.55268 52.7133 7.55268 51.9949V51.8979H8.65313L6.31274 74.6318H5.95626C5.22779 74.6318 4.51483 74.6318 3.80186 74.6318C3.13539 74.6318 2.63941 74.8454 2.29843 75.2919C2.00394 75.6802 1.84895 76.2044 1.86445 76.8644C1.86445 77.5051 2.08144 79 3.80186 79C6.87071 79 9.93957 79 13.0084 79C14.1864 79 14.9303 78.1652 14.9303 76.8256C14.9303 75.486 14.2174 74.6512 13.0394 74.6124C12.8224 74.6124 12.5899 74.6124 12.3575 74.6124L21.192 64.5753L30.0266 74.6124H29.7476C27.9652 74.6512 27.7792 76.1655 27.7792 76.8256C27.7792 78.1652 28.5232 78.9806 29.7011 79C31.2356 79 32.77 79 34.3044 79C35.8388 79 37.3733 79 38.9077 79C39.5587 79 40.0546 78.767 40.3956 78.3399C40.7056 77.9322 40.8606 77.408 40.8451 76.748C40.8451 76.1267 40.6126 74.6512 38.9077 74.6318C38.1482 74.6318 37.3888 74.6318 36.5983 74.6318H36.0868L35.4514 66.6332H39.2487C43.4335 66.6332 47.6183 66.6332 51.8031 66.6332C52.3766 66.6332 52.9345 66.6332 53.508 66.4391C55.8639 65.7207 57.3208 63.2551 57.3363 60.013C57.3363 56.7902 57.3363 53.5675 57.3363 50.3447V46.0154H57.4758C58.0338 46.0154 58.5608 46.0154 59.0722 46.0154C60.2967 45.9766 61.6296 44.9282 61.7536 43.2198C61.8466 42.0355 61.8156 40.8512 61.8001 39.6864C61.8001 39.201 61.7846 38.6963 61.7846 38.2109L61.8001 38.1721ZM18.6967 61.5273L10.358 71.079L12.063 53.9946L18.6967 61.5079V61.5273ZM13.0859 44.0934L14.1554 33.3186L18.6657 38.1333L13.0859 44.0934ZM24.9584 31.183L21.223 35.1241L17.5032 31.183H24.9584ZM25.6713 26.6789H17.0072L21.347 21.0488L25.6868 26.6789H25.6713ZM23.7959 18.059L26.5703 14.3898L27.4072 22.3302L23.7959 18.059ZM21.192 14.3315L19.0066 11.7689H23.4239L21.192 14.3315ZM18.8981 18.0785L15.2713 22.3496L16.1083 14.4092L18.8981 18.0785ZM24.0129 38.1527L28.5077 33.338L29.5771 44.1128L24.0129 38.1721V38.1527ZM15.4883 47.2967L21.223 41.0454L27.0508 47.2967H15.4883ZM27.2987 51.8979L21.3315 58.6346L15.3643 51.8979H27.2987ZM30.6001 54.0334L32.305 71.0984L23.9664 61.5467L30.6001 54.0334Z" fill="#991F23"/>
    <path d="M69.6737 14.6033C67.8758 3.6926 60.4517 -1.49098 52.7485 0.372781C46.7658 1.82884 43.077 6.62413 41.6976 14.0015C40.3491 21.2041 42.0231 27.3002 46.5488 32.0955C47.2463 32.8332 48.1918 33.2991 48.7342 34.1728C49.4472 35.357 50.2842 35.4735 51.2916 35.4153C52.1906 35.357 53.0895 35.4153 53.9885 35.4153C54.159 35.4153 54.345 35.3765 54.5 35.357V20.4276C52.857 19.9228 51.8031 19.2627 50.9041 18.1755C50.3152 17.4572 50.2222 16.7001 50.6561 16.0788C51.1211 15.4576 51.6636 15.477 52.3301 16.1759C54.4225 18.3503 56.8403 18.3309 58.9482 16.1176C59.5682 15.477 60.1107 15.4576 60.5757 16.0788C61.0406 16.7001 60.9787 17.399 60.4052 18.0979C59.5372 19.1462 58.5298 19.9034 57.3518 20.214C56.8403 20.3499 56.6699 20.5829 56.6699 21.2624C56.7009 25.6888 56.6699 30.1346 56.6699 34.5611C56.6699 34.8134 56.7009 35.0852 56.7164 35.4347C58.0493 35.4347 59.3357 35.3765 60.6222 35.4541C61.3196 35.4929 61.8001 35.2988 62.2031 34.5222C62.4511 34.0563 62.8851 33.7263 63.288 33.4156C68.5113 29.2028 70.9292 22.2331 69.6737 14.6228V14.6033Z" fill="#991F23"/>
</svg>
