<svg width="24" height="32" viewBox="0 0 24 32" fill="none" xmlns="http://www.w3.org/2000/svg">
<path fill-rule="evenodd" clip-rule="evenodd" d="M14.7293 0H2C0.895431 0 0 0.895431 0 2V30.0004C0 31.1049 0.895429 32.0004 2 32.0004H21.9991C23.1037 32.0004 23.9991 31.1049 23.9991 30.0004V9.22417L14.7293 0Z" fill="#E5252A"/>
<path d="M16.9258 23.7091V15.7124H22.4115V17.2821H18.8682V18.922H22.0623V20.4956H18.8682V23.7091H16.9258Z" fill="white"/>
<path d="M11.824 23.7091H8.85352V15.7124H11.8201C12.6389 15.7124 13.3439 15.8725 13.9351 16.1927C14.5289 16.5103 14.9867 16.9684 15.3085 17.5671C15.6302 18.1632 15.7911 18.8765 15.7911 19.7069C15.7911 20.5399 15.6302 21.2557 15.3085 21.8544C14.9893 22.4531 14.5328 22.9126 13.939 23.2328C13.3452 23.5503 12.6402 23.7091 11.824 23.7091ZM10.7959 22.0614H11.7494C12.1994 22.0614 12.58 21.9859 12.8913 21.8349C13.2052 21.6813 13.442 21.4327 13.6015 21.0891C13.7637 20.7429 13.8448 20.2822 13.8448 19.7069C13.8448 19.1316 13.7637 18.6734 13.6015 18.3324C13.4394 17.9888 13.2 17.7415 12.8835 17.5905C12.5695 17.437 12.1824 17.3602 11.722 17.3602H10.7959V22.0614Z" fill="white"/>
<path d="M1.64551 23.7091V15.7124H4.9652C5.56688 15.7124 6.08616 15.8295 6.52303 16.0638C6.96252 16.2955 7.30129 16.6196 7.53934 17.0361C7.7774 17.45 7.89642 17.9315 7.89642 18.4808C7.89642 19.0327 7.77478 19.5155 7.53149 19.9294C7.29082 20.3407 6.94682 20.6596 6.49948 20.8861C6.05215 21.1125 5.5211 21.2258 4.90634 21.2258H2.85802V19.703H4.54534C4.83833 19.703 5.08292 19.6522 5.27912 19.5507C5.47794 19.4492 5.62836 19.3073 5.73038 19.1251C5.83241 18.9403 5.88342 18.7255 5.88342 18.4808C5.88342 18.2335 5.83241 18.0201 5.73038 17.8404C5.62836 17.6582 5.47794 17.5177 5.27912 17.4187C5.08031 17.3198 4.83571 17.2704 4.54534 17.2704H3.58788V23.7091H1.64551Z" fill="white"/>
<path d="M15.2295 8.64353V1.2029L22.7775 8.71372L15.2295 8.64353Z" fill="#EC8E90" stroke="#EC8E90"/>
</svg>
