<svg width="23" height="23" viewBox="0 0 23 23" fill="none" xmlns="http://www.w3.org/2000/svg">
    <path fill-rule="evenodd" clip-rule="evenodd" d="M17.5395 10.0222C17.5395 11.0094 17.3451 11.9869 16.9673 12.8989C16.5895 13.811 16.0358 14.6397 15.3377 15.3377C14.6397 16.0358 13.811 16.5895 12.8989 16.9673C11.9869 17.3451 11.0094 17.5395 10.0222 17.5395C9.03497 17.5395 8.05745 17.3451 7.1454 16.9673C6.23335 16.5895 5.40464 16.0358 4.70659 15.3377C4.00854 14.6397 3.45481 13.811 3.07703 12.8989C2.69924 11.9869 2.5048 11.0094 2.5048 10.0222C2.5048 8.02844 3.29681 6.11637 4.70659 4.70659C6.11637 3.29681 8.02844 2.5048 10.0222 2.5048C12.0159 2.5048 13.928 3.29681 15.3377 4.70659C16.7475 6.11637 17.5395 8.02844 17.5395 10.0222ZM16.1697 17.9405C14.1557 19.504 11.6215 20.2413 9.083 20.0021C6.54452 19.763 4.19261 18.5654 2.50605 16.6532C0.819499 14.7409 -0.0749066 12.2578 0.00491798 9.70936C0.0847426 7.1609 1.1328 4.73864 2.93572 2.93572C4.73864 1.1328 7.1609 0.0847426 9.70936 0.00491798C12.2578 -0.0749066 14.7409 0.819499 16.6532 2.50605C18.5654 4.19261 19.763 6.54452 20.0021 9.083C20.2413 11.6215 19.504 14.1557 17.9405 16.1697L22.6012 20.8305C22.7243 20.9452 22.8231 21.0835 22.8915 21.2372C22.96 21.3909 22.9968 21.5568 22.9998 21.725C23.0028 21.8932 22.9718 22.0603 22.9088 22.2163C22.8458 22.3723 22.752 22.5141 22.633 22.633C22.5141 22.752 22.3723 22.8458 22.2163 22.9088C22.0603 22.9718 21.8932 23.0028 21.725 22.9998C21.5568 22.9968 21.3909 22.96 21.2372 22.8915C21.0835 22.8231 20.9452 22.7243 20.8305 22.6012L16.1697 17.9405Z" fill="black"/>
</svg>
